<?xml version="1.0" encoding="UTF-8" standalone="no"?>
<!DOCTYPE svg PUBLIC "-//W3C//DTD SVG 1.1//EN" "http://www.w3.org/Graphics/SVG/1.1/DTD/svg11.dtd">
<svg width="100%" height="100%" viewBox="0 0 72 72" version="1.1" xmlns="http://www.w3.org/2000/svg" xmlns:xlink="http://www.w3.org/1999/xlink" xml:space="preserve" xmlns:serif="http://www.serif.com/" style="fill-rule:evenodd;clip-rule:evenodd;stroke-linejoin:round;stroke-miterlimit:2;">
    <g transform="matrix(0.175489,0.0375405,-0.0421269,0.156383,-3.66758,-14.3853)">
        <path d="M52.5,135.629C158.263,29.866 355.738,27.864 461.5,133.626L256,488.968L52.5,135.629Z" style="fill:rgb(112,208,255);fill-rule:nonzero;"/>
    </g>
    <g transform="matrix(0.175489,0.0375405,-0.0421269,0.156383,-3.66758,-14.3853)">
        <path d="M447.044,161.685L458.65,139.725C462.397,132.636 460.83,123.933 454.907,118.529C342.369,15.842 169.631,15.843 57.093,118.532C51.17,123.937 49.603,132.639 53.35,139.728L64.955,161.686C70.091,171.404 82.751,173.986 91.388,167.188C187.73,91.354 324.269,91.354 420.611,167.187C429.248,173.985 441.908,171.403 447.044,161.685Z" style="fill:rgb(236,19,149);fill-rule:nonzero;"/>
    </g>
    <g transform="matrix(0.174039,0.0425648,-0.047765,0.155091,1.51765,-16.7689)">
        <path d="M359,194C323.654,194 295,222.654 295,258C295,288.556 316.419,314.093 345.058,320.459L402.746,211.307C391.301,200.58 375.923,194 359,194Z" style="fill:rgb(236,19,149);fill-rule:nonzero;"/>
    </g>
    <g transform="matrix(0.177189,0.0305444,-0.0342761,0.157899,-7.43968,-13.9487)">
        <path d="M150,204.137C135.793,204.137 122.672,208.773 112.053,216.606L171.203,328.525C196.125,319.774 214,296.05 214,268.137C214,232.791 185.346,204.137 150,204.137Z" style="fill:rgb(236,19,149);fill-rule:nonzero;"/>
    </g>
    <g transform="matrix(0.175489,0.0375405,-0.0421269,0.156383,-3.66758,-14.3853)">
        <path d="M259,325.459C223.654,325.459 198,350.113 198,385.459C198,385.616 196.999,394.303 198,385.459L230.57,443.068C240.911,450.243 251.461,448.459 265.001,448.459C269.5,448.459 273.888,447.99 278.125,447.107L324.155,370.013C314.549,346.797 285.686,325.459 259,325.459Z" style="fill:rgb(236,19,149);fill-rule:nonzero;"/>
    </g>
</svg>
