<?xml version="1.0" encoding="UTF-8" standalone="no"?>
<!DOCTYPE svg PUBLIC "-//W3C//DTD SVG 1.1//EN" "http://www.w3.org/Graphics/SVG/1.1/DTD/svg11.dtd">
<svg width="100%" height="100%" viewBox="0 0 72 72" version="1.1" xmlns="http://www.w3.org/2000/svg" xmlns:xlink="http://www.w3.org/1999/xlink" xml:space="preserve" xmlns:serif="http://www.serif.com/" style="fill-rule:evenodd;clip-rule:evenodd;stroke-linejoin:round;stroke-miterlimit:2;">
    <g transform="matrix(0.792089,0,0,0.648817,-43.0129,-39.0071)">
        <path d="M104.083,97.151C100.518,70.549 110.461,71.922 110.678,62.514C110.719,60.794 108.705,59.837 107.397,60.957C96.823,70.023 91.006,72.996 85.758,91.323C83.085,100.658 81.454,122.729 81.444,123.73L84.002,123.755C84.02,121.988 84.219,120.165 84.414,118.403C85.505,107.834 86,99.77 88.217,92.027C90.673,83.454 94.278,74.128 102.283,68.742L104.148,71.207C99.949,79.647 100.476,89.486 101.548,97.492C102.709,106.136 105.874,114.558 108.453,122.735C108.453,122.735 109.835,127.167 110.579,128.913L112.93,127.911C112.505,126.91 105.316,106.34 104.083,97.151Z" style="fill:rgb(112,208,255);fill-rule:nonzero;"/>
    </g>
    <g transform="matrix(1.15828,0,0,1.1259,-73.9111,-100.51)">
        <path d="M103.292,134.775C103.292,144.97 96.086,153.014 82.95,153.014L82.95,119.304C84.721,118.424 86.671,117.936 88.711,117.936C96.761,117.936 103.292,125.476 103.292,134.775Z" style="fill:rgb(197,19,149);fill-rule:nonzero;"/>
    </g>
    <g transform="matrix(1.10912,0,0,1.1259,-68.8333,-100.51)">
        <path d="M82.95,119.304L82.95,153.014C70.133,153.014 62.621,145.256 62.621,134.775C62.621,125.476 69.141,117.936 77.19,117.936C79.24,117.936 81.181,118.424 82.95,119.304Z" style="fill:rgb(197,19,149);fill-rule:nonzero;"/>
    </g>
    <g transform="matrix(1.10912,0,0,1.1259,-78.8154,-100.51)">
        <path d="M109.068,120.232L124.983,149.949C113.685,156 103.4,152.708 98.451,143.468C94.059,135.27 96.248,125.544 103.344,121.745C105.151,120.777 107.093,120.292 109.068,120.232Z" style="fill:rgb(236,19,149);fill-rule:nonzero;"/>
    </g>
    <g transform="matrix(1.10912,0,0,1.1259,-79.7441,-99.5207)">
        <path d="M134.303,124.268C139.116,133.254 136.562,143.748 124.983,149.949L109.068,120.232C110.213,118.621 111.702,117.269 113.5,116.305C120.596,112.504 129.912,116.069 134.303,124.268Z" style="fill:rgb(236,19,149);fill-rule:nonzero;"/>
    </g>
</svg>
